<?xml version="1.0" standalone="no"?><!DOCTYPE svg PUBLIC "-//W3C//DTD SVG 1.1//EN" "http://www.w3.org/Graphics/SVG/1.1/DTD/svg11.dtd"><svg t="1639976032955" class="icon" viewBox="0 0 1024 1024" version="1.1" xmlns="http://www.w3.org/2000/svg" p-id="12688" xmlns:xlink="http://www.w3.org/1999/xlink" width="200" height="200"><defs><style type="text/css"></style></defs><path d="M972.8 1024H588.8c-28.16 0-51.2-23.04-51.2-51.2V588.8c0-28.16 23.04-51.2 51.2-51.2h384c28.16 0 51.2 23.04 51.2 51.2v384c0 28.16-23.04 51.2-51.2 51.2z m0-537.6H588.8c-28.16 0-51.2-23.04-51.2-51.2V51.2c0-28.16 23.04-51.2 51.2-51.2h384c28.16 0 51.2 23.04 51.2 51.2v384c0 28.16-23.04 51.2-51.2 51.2zM435.2 1024H51.2c-28.16 0-51.2-23.04-51.2-51.2V588.8c0-28.16 23.04-51.2 51.2-51.2h384c28.16 0 51.2 23.04 51.2 51.2v384c0 28.16-23.04 51.2-51.2 51.2z m0-537.6H51.2c-28.16 0-51.2-23.04-51.2-51.2V51.2c0-28.16 23.04-51.2 51.2-51.2h384c28.16 0 51.2 23.04 51.2 51.2v384c0 28.16-23.04 51.2-51.2 51.2zM76.8 345.6a25.6 25.6 0 1 0 0.0128-51.1872A25.6 25.6 0 0 0 76.8 345.6zM268.8 51.2H128c-42.24 0-76.8 34.56-76.8 76.8v89.6a25.6 25.6 0 1 0 51.2 0v-89.6c0-13.8752 11.7248-25.6 25.6-25.6h140.8a25.6 25.6 0 1 0 0-51.2z" fill="#FF6F61" p-id="12689"></path></svg>