<?xml version="1.0" standalone="no"?><!DOCTYPE svg PUBLIC "-//W3C//DTD SVG 1.1//EN" "http://www.w3.org/Graphics/SVG/1.1/DTD/svg11.dtd"><svg t="1639975929101" class="icon" viewBox="0 0 1024 1024" version="1.1" xmlns="http://www.w3.org/2000/svg" p-id="11233" xmlns:xlink="http://www.w3.org/1999/xlink" width="200" height="200"><defs><style type="text/css"></style></defs><path d="M932.6592 180.3264H209.2032a958.2592 958.2592 0 0 1-18.7392-99.7376A73.216 73.216 0 0 0 153.6 18.2272a109.8752 109.8752 0 0 0-37.4784-6.2464H47.0016a29.4912 29.4912 0 0 0-30.72 31.232 29.4912 29.4912 0 0 0 30.72 30.72h74.8544s6.2464 0 6.2464 12.4928c6.2464 37.376 99.84 629.9648 105.984 667.3408a245.76 245.76 0 0 0 12.4928 37.4784C265.3184 810.2912 284.0576 829.44 327.68 829.44h579.9936a30.72 30.72 0 1 0 0-62.3616H327.68a37.5808 37.5808 0 0 1-24.9856-6.2464l-5.7344-6.656V747.52s-6.144-24.8832-12.3904-62.3616h573.44c49.8688 0 81.1008-24.8832 93.5936-68.608L1013.76 261.4272v-6.2464c0-37.376-37.376-74.8544-81.1008-74.8544zM849.3056 880.64a64.7168 64.7168 0 1 0 64.6144 64.7168A64.7168 64.7168 0 0 0 849.3056 880.64z m-517.632 0a64.7168 64.7168 0 1 0 64.6144 64.7168A64.7168 64.7168 0 0 0 331.6736 880.64z m0 0" fill="#FE9125" p-id="11234"></path></svg>