<?xml version="1.0" standalone="no"?><!DOCTYPE svg PUBLIC "-//W3C//DTD SVG 1.1//EN" "http://www.w3.org/Graphics/SVG/1.1/DTD/svg11.dtd"><svg t="1639975888959" class="icon" viewBox="0 0 1119 1024" version="1.1" xmlns="http://www.w3.org/2000/svg" p-id="10753" xmlns:xlink="http://www.w3.org/1999/xlink" width="218.5546875" height="200"><defs><style type="text/css"></style></defs><path d="M1107.410146 466.843798L579.359582 8.589425a35.609141 35.609141 0 0 0-46.360144 0L12.002442 471.223836a35.495373 35.495373 0 0 0 23.492931 62.003137h72.867907v363.144975a129.694634 129.694634 0 0 0 25.882043 93.346006 104.552078 104.552078 0 0 0 83.106956 34.130167h664.855649a127.191755 127.191755 0 0 0 84.927232-31.34287 123.551204 123.551204 0 0 0 36.746813-95.166282V531.91865l81.286681-2.389112a35.040305 35.040305 0 0 0 31.911706-23.492931 36.462395 36.462395 0 0 0-9.670214-39.192809zM467.867703 710.760724v-0.62572a18.316523 18.316523 0 0 1 4.835107-7.224219c6.029663-6.029663 26.507763-20.4781 84.301512-20.4781a126.907337 126.907337 0 0 1 79.637056 18.088989 27.361017 27.361017 0 0 1 9.044494 12.628162v239.707538H467.867703z" fill="#F18101" p-id="10754"></path></svg>